<?xml version="1.0" encoding="UTF-8"?>
<svg version="1.1" xmlns="http://www.w3.org/2000/svg" width="512" height="512">
<path d="M0 0 C10.76928079 7.45991144 22.65427926 10.08796706 35.22705078 13.2277832 C42.90235955 15.15111634 50.5460795 17.19348957 58.18481445 19.25662231 C60.79815801 19.95660798 63.41617528 20.63640482 66.03515625 21.31494141 C76.77715658 24.158331 86.81401081 27.10872632 94.16601562 36.03393555 C94.79507812 36.78030273 95.42414063 37.52666992 96.07226562 38.2956543 C97.34019021 39.92717491 98.51985249 41.62719085 99.66601562 43.34643555 C100.68426926 43.0443367 101.70252289 42.74223785 102.75163269 42.4309845 C112.44130159 39.55702676 122.13273225 36.6890784 131.82583141 33.8267107 C136.80671503 32.35565686 141.78699762 30.88263608 146.76586914 29.40478516 C151.5885084 27.9733925 156.41277451 26.54760384 161.23812294 25.12537193 C163.06066802 24.58718845 164.88266081 24.04713028 166.70403099 23.5049839 C176.42268529 20.6135759 186.15657866 17.89865817 196.01879883 15.53662109 C196.88208644 15.32941091 197.74537405 15.12220072 198.63482189 14.90871143 C215.39932256 10.98539847 234.35476561 9.63184088 249.63476562 18.9050293 C256.9572493 24.10117637 261.72021166 30.52707657 263.66601562 39.34643555 C264.28784992 49.6321864 264.47994321 58.97273183 259.66601562 68.34643555 C259.2303125 69.20624023 258.79460937 70.06604492 258.34570312 70.9519043 C250.59295331 84.9534552 238.62076016 91.57061289 224.04882812 97.04174805 C222.93952942 97.46706818 221.83023071 97.89238831 220.68731689 98.33059692 C217.05850344 99.71966319 213.42483369 101.09552097 209.79101562 102.47143555 C207.23245788 103.44694316 204.67504278 104.42542842 202.11767578 105.40405273 C196.86541679 107.4127332 191.61111038 109.41595989 186.35546875 111.41577148 C175.97266769 115.36772959 165.60822833 119.36726441 155.24237061 123.36340332 C149.92436038 125.41168538 144.60357318 127.45273045 139.28320312 129.49487305 C131.82029172 132.35966597 124.36230578 135.23669092 116.91030884 138.12976074 C112.67187364 139.77425106 108.43121481 141.4129582 104.19024658 143.05090332 C102.21975743 143.81358352 100.25026203 144.57883778 98.28192139 145.3470459 C88.59512586 149.12662915 78.90464939 152.72104957 68.94726562 155.72924805 C68.15984985 155.96755341 67.37243408 156.20585876 66.56115723 156.4513855 C57.29438664 159.16311009 48.3879676 160.72352202 38.72851562 160.78393555 C37.83583984 160.81680664 36.94316406 160.84967773 36.0234375 160.88354492 C21.27656994 160.99580481 6.68953153 155.0788178 -7.29492188 150.9206543 C-7.95731684 150.72383245 -8.6197118 150.52701061 -9.30217934 150.32422447 C-11.33762032 149.71933278 -13.3729308 149.11400384 -15.40820312 148.50854492 C-16.0886906 148.30624928 -16.76917807 148.10395365 -17.47028637 147.89552784 C-20.95196709 146.85932206 -24.43150483 145.81662978 -27.90771484 144.76220703 C-31.33569439 143.7229547 -34.7685495 142.70145577 -38.20512772 141.69101906 C-40.10565867 141.12721826 -42.00075679 140.54520289 -43.89559937 139.96257019 C-63.65444398 134.19343449 -76.83003732 140.1725996 -94.07226562 149.5534668 C-95.14863281 150.14514648 -96.225 150.73682617 -97.33398438 151.34643555 C-97.05683594 151.98709961 -96.7796875 152.62776367 -96.49414062 153.2878418 C-92.94519087 161.76238018 -91.32966256 168.46338673 -94.33398438 177.34643555 C-98.57675115 185.22585956 -104.68453169 188.87528099 -112.68945312 192.08081055 C-113.86463249 192.56605194 -113.86463249 192.56605194 -115.06355286 193.06109619 C-117.54551534 194.08300704 -120.03330163 195.08977908 -122.52148438 196.09643555 C-124.20352176 196.78687601 -125.88516669 197.47827337 -127.56640625 198.1706543 C-147.84363837 206.49641026 -147.84363837 206.49641026 -158.75585938 203.7331543 C-170.00831713 198.78294517 -173.69457989 185.19876759 -178.02148438 174.72143555 C-178.76499446 172.94437662 -179.50940049 171.16769233 -180.25463867 169.39135742 C-182.63054877 163.71636421 -184.9830124 158.03179419 -187.33398438 152.34643555 C-188.10758313 150.47950549 -188.8813448 148.61264294 -189.65527344 146.74584961 C-193.17679187 138.24826038 -196.68862465 129.74672866 -200.19042969 121.24099731 C-206.68907934 105.4576403 -213.25837908 89.70395511 -219.8371582 73.95385742 C-220.24243744 72.98285095 -220.64771667 72.01184448 -221.0652771 71.01141357 C-221.81504592 69.2151181 -222.56541661 67.41907365 -223.31655884 65.62335205 C-224.32792724 63.19996758 -225.33292707 60.77409651 -226.33398438 58.34643555 C-226.70113556 57.45879517 -227.06828674 56.57115479 -227.44656372 55.65661621 C-227.80587982 54.77598511 -228.16519592 53.895354 -228.53540039 52.98803711 C-228.85952408 52.19673401 -229.18364777 51.40543091 -229.51759338 50.59014893 C-231.79381906 44.33432535 -231.71748281 38.54353148 -229.33398438 32.34643555 C-225.0120067 24.47426192 -219.0216515 20.83289287 -210.97851562 17.61206055 C-210.19506271 17.28856628 -209.4116098 16.96507202 -208.60441589 16.6317749 C-206.12245341 15.60986406 -203.63466712 14.60309202 -201.14648438 13.59643555 C-199.46444699 12.90599508 -197.78280206 12.21459772 -196.1015625 11.5222168 C-175.51625925 3.06996797 -175.51625925 3.06996797 -164.87695312 6.0300293 C-158.14209926 9.13347056 -154.86513859 14.10067258 -151.68945312 20.55737305 C-151.24625732 21.45504395 -150.80306152 22.35271484 -150.34643555 23.27758789 C-149.84527222 24.30166748 -149.84527222 24.30166748 -149.33398438 25.34643555 C-144.3116484 22.99546557 -139.29123006 20.6404306 -134.27148438 18.28393555 C-133.51111877 17.92728821 -132.75075317 17.57064087 -131.96734619 17.20318604 C-123.52921303 13.24326935 -115.10595009 9.25807611 -106.73632812 5.1550293 C-105.71323799 4.65461372 -105.71323799 4.65461372 -104.66947937 4.14408875 C-101.45516528 2.57106492 -98.24483443 0.99077031 -95.04077148 -0.60302734 C-88.75921063 -3.68497875 -82.44699489 -6.49579905 -75.90429688 -8.96606445 C-75.25955414 -9.21011017 -74.6148114 -9.45415588 -73.95053101 -9.70559692 C-48.85182492 -18.92500858 -21.87974587 -15.38084098 0 0 Z M-86.33398438 12.34643555 C-87.38102539 12.84997559 -88.42806641 13.35351562 -89.50683594 13.87231445 C-94.31085594 16.18401818 -99.11311427 18.49907003 -103.90625 20.83325195 C-110.37104691 23.97786 -116.85444551 27.0710461 -123.38867188 30.0690918 C-124.03895355 30.3679277 -124.68923523 30.66676361 -125.35922241 30.97465515 C-128.48992048 32.41176834 -131.62401268 33.84077102 -134.76318359 35.25927734 C-136.43018311 36.02171753 -136.43018311 36.02171753 -138.13085938 36.79956055 C-139.1140918 37.24460937 -140.09732422 37.6896582 -141.11035156 38.14819336 C-143.47378927 39.14668166 -143.47378927 39.14668166 -144.33398438 41.34643555 C-143.42884989 43.85040947 -142.45295275 46.24195157 -141.38085938 48.67456055 C-141.05347275 49.43520309 -140.72608612 50.19584564 -140.38877869 50.97953796 C-139.6718351 52.64368828 -138.95145085 54.30635938 -138.2281189 55.96774292 C-136.2691929 60.46844998 -134.33577812 64.98009947 -132.40039062 69.4909668 C-131.78723747 70.91772484 -131.78723747 70.91772484 -131.16169739 72.37330627 C-125.90851068 84.62451151 -120.85285545 96.95740715 -115.78771973 109.28723145 C-114.99419533 111.21874287 -114.20026667 113.15008827 -113.40589905 115.08125305 C-112.68591196 116.83202421 -111.96708765 118.58327427 -111.2497406 120.33512878 C-109.03796098 125.71552038 -106.7240681 131.0428722 -104.33398438 136.34643555 C-97.59837185 134.37721993 -91.47036607 131.09215088 -85.20898438 127.97924805 C-71.08254578 121.09922464 -58.05146619 120.74884035 -43.06835938 124.8581543 C-42.08324875 125.12186325 -41.09813812 125.3855722 -40.08317566 125.65727234 C-27.2175602 129.13514666 -14.43319864 132.90373582 -1.64648438 136.65893555 C2.08070894 137.75046212 5.80817512 138.84104888 9.5358429 139.93095398 C11.82994842 140.60202685 14.12373639 141.27418651 16.41716003 141.94758606 C17.95706352 142.39892159 17.95706352 142.39892159 19.52807617 142.859375 C20.42689011 143.12329544 21.32570404 143.38721588 22.25175476 143.65913391 C57.88907052 153.8045104 101.10800806 128.07379846 133.48632812 115.4675293 C144.63818983 111.12600474 155.80538804 106.82527831 166.97851562 102.53881836 C171.40467509 100.84067428 175.82914356 99.13824626 180.25195312 97.43139648 C182.38735531 96.60746571 184.52277174 95.78357188 186.65820312 94.9597168 C187.68886902 94.56203094 188.71953491 94.16434509 189.78143311 93.75460815 C195.34423752 91.612188 200.9156381 89.49622322 206.50250244 87.4173584 C209.57412252 86.2718983 212.63939036 85.11008984 215.70361328 83.94500732 C217.06185545 83.43352192 218.42308253 82.92987119 219.78759766 82.43536377 C232.68274978 77.75926705 241.57501906 70.79814071 247.66601562 58.34643555 C249.68107022 52.30127176 249.75312662 44.92946465 247.90039062 38.82299805 C244.78127323 33.08997242 239.64483643 30.5231 233.66601562 28.34643555 C229.71612385 27.33148791 225.92554886 27.14937639 221.85351562 27.09643555 C220.11134766 27.05776367 220.11134766 27.05776367 218.33398438 27.01831055 C206.0533877 27.49450571 193.86683866 31.21737432 182.17773438 34.7331543 C180.74091302 35.15880121 179.30388036 35.5837354 177.86665344 36.00801086 C174.11530991 37.11745001 170.3668391 38.23629096 166.61895752 39.35736084 C162.89089122 40.47074864 159.16019304 41.57523841 155.4296875 42.68041992 C149.62211818 44.40208319 143.81601879 46.12860326 138.01123047 47.85961914 C130.00948853 50.24571096 122.00434385 52.620209 113.99804688 54.9909668 C112.84390793 55.33278488 111.68976898 55.67460297 110.50065613 56.02677917 C107.88915276 56.8001449 105.27760972 57.57337625 102.66601562 58.34643555 C102.56401855 59.39532959 102.46202148 60.44422363 102.35693359 61.52490234 C101.23870905 72.44815259 98.69187419 81.32057698 90.66601562 89.34643555 C80.74196145 97.37643564 70.28691561 99.59598185 57.66601562 98.34643555 C51.5009146 97.31360839 45.49168352 95.55967627 39.47460938 93.89331055 C37.7549546 93.43060768 36.03489845 92.9693943 34.31446838 92.50958252 C29.81900249 91.30355906 25.32958163 90.07638069 20.84106445 88.8447876 C17.19986551 87.84940857 13.55475564 86.86885608 9.90931606 85.88914108 C-33.44324649 74.23717343 -33.44324649 74.23717343 -36.33398438 71.34643555 C-36.87985593 65.34184839 -36.87985593 65.34184839 -35.27148438 62.40893555 C-29.95758311 59.49486066 -23.27478124 61.91614113 -17.8034668 63.45776367 C-16.56781731 63.79426186 -16.56781731 63.79426186 -15.3072052 64.13755798 C-13.52797389 64.62316907 -11.74982652 65.11276576 -9.97267723 65.60594177 C-7.15311527 66.38776146 -4.33056059 67.15776183 -1.50691223 67.92468262 C6.5175648 70.10663576 14.5358153 72.31112157 22.55297852 74.51977539 C27.46651933 75.87254104 32.38331541 77.21290728 37.30216026 78.54624939 C39.16806754 79.05487089 41.03265647 79.56835624 42.89582253 80.08692932 C45.50998366 80.81451748 48.12800147 81.52632631 50.74731445 82.23510742 C51.50452789 82.45017441 52.26174133 82.66524139 53.04190063 82.88682556 C61.77840804 85.21166918 69.40725153 85.34147285 77.40039062 80.9050293 C82.4897814 77.40387944 85.74075657 73.21760842 87.66601562 67.34643555 C88.54354818 59.94863202 88.23475329 53.41182865 83.66601562 47.34643555 C75.24765922 36.75702933 58.76903054 35.06940744 46.34570312 31.89331055 C45.15013794 31.58588425 43.95457275 31.27845795 42.72277832 30.9617157 C35.25102442 29.04039142 35.25102442 29.04039142 27.76904297 27.15942383 C13.4581141 23.59241315 1.5171132 20.24841691 -10.33398438 11.34643555 C-36.48227705 -4.36643017 -60.13743365 -0.32284682 -86.33398438 12.34643555 Z M-185.31445312 23.26831055 C-186.04972733 23.56956848 -186.78500153 23.87082642 -187.54255676 24.18121338 C-189.08708075 24.81755049 -190.62911007 25.45997337 -192.16870117 26.1081543 C-194.5185778 27.09521465 -196.87738728 28.0579469 -199.23828125 29.01831055 C-200.74343008 29.64188464 -202.24800825 30.26683832 -203.75195312 30.89331055 C-204.80360909 31.3216922 -204.80360909 31.3216922 -205.87651062 31.75872803 C-209.74638951 33.40589342 -212.92128453 34.83410654 -215.33398438 38.34643555 C-216.15499058 44.20208942 -214.40092867 48.50793437 -212.09960938 53.7487793 C-211.75485565 54.56183533 -211.41010193 55.37489136 -211.05490112 56.21258545 C-209.90920013 58.9079983 -208.74639888 61.59569346 -207.58398438 64.28393555 C-206.76600801 66.20171154 -205.94946817 68.1201008 -205.13427734 70.0390625 C-203.41401573 74.08682146 -201.68850927 78.13228713 -199.95996094 82.17651367 C-196.1473151 91.11459224 -192.42187 100.08885385 -188.69421387 109.06262207 C-187.45699019 112.0387325 -186.21677959 115.01358038 -184.97558594 117.98803711 C-181.0180882 127.47433521 -177.07401215 136.96579222 -173.1647644 146.47209167 C-171.3337098 150.92278155 -169.49667007 155.37098944 -167.65911865 159.81900024 C-166.78261311 161.94550821 -165.90906896 164.07323946 -165.03863525 166.20223999 C-163.83196809 169.15314819 -162.61531555 172.09975371 -161.39648438 175.0456543 C-160.86654373 176.35312622 -160.86654373 176.35312622 -160.32589722 177.68701172 C-157.72221145 184.10707769 -157.72221145 184.10707769 -153.33398438 189.34643555 C-147.72218765 190.20103671 -143.42273079 188.56655176 -138.35351562 186.42456055 C-137.61824142 186.12330261 -136.88296722 185.82204468 -136.12541199 185.51165771 C-134.580888 184.8753206 -133.03885868 184.23289772 -131.49926758 183.5847168 C-129.14939095 182.59765645 -126.79058147 181.63492419 -124.4296875 180.67456055 C-122.92453867 180.05098645 -121.4199605 179.42603278 -119.91601562 178.79956055 C-119.21491165 178.51397278 -118.51380768 178.22838501 -117.79145813 177.93414307 C-113.92157924 176.28697767 -110.74668422 174.85876456 -108.33398438 171.34643555 C-107.51297817 165.49078168 -109.26704008 161.18493672 -111.56835938 155.9440918 C-111.9131131 155.13103577 -112.25786682 154.31797974 -112.61306763 153.48028564 C-113.75876862 150.7848728 -114.92156987 148.09717764 -116.08398438 145.40893555 C-116.90196074 143.49115955 -117.71850058 141.57277029 -118.53369141 139.65380859 C-120.25395302 135.60604964 -121.97945948 131.56058396 -123.70800781 127.51635742 C-127.52065365 118.57827885 -131.24609875 109.60401724 -134.97375488 100.63024902 C-136.21097856 97.6541386 -137.45118916 94.67929071 -138.69238281 91.70483398 C-142.64988055 82.21853589 -146.5939566 72.72707888 -150.50320435 63.22077942 C-152.33425895 58.77008954 -154.17129868 54.32188165 -156.0088501 49.87387085 C-156.88535564 47.74736288 -157.75889979 45.61963164 -158.6293335 43.4906311 C-159.83600066 40.5397229 -161.0526532 37.59311739 -162.27148438 34.6472168 C-162.62477814 33.77556885 -162.9780719 32.9039209 -163.34207153 32.00585938 C-165.9457573 25.5857934 -165.9457573 25.5857934 -170.33398438 20.34643555 C-175.9457811 19.49183438 -180.24523796 21.12631933 -185.31445312 23.26831055 Z " fill="#0096FF" transform="translate(239.333984375,298.653564453125)"/>
<path d="M0 0 C1.21816406 0.88751953 1.21816406 0.88751953 2.4609375 1.79296875 C23.91226815 18.20289834 39.17962242 40.43849791 45 67 C45.22300781 67.98226562 45.44601562 68.96453125 45.67578125 69.9765625 C50.92268612 97.60312283 45.33950722 128.17235558 29.85644531 151.74072266 C27.37690964 155.27234054 24.69331974 158.63103647 22 162 C19.98586564 164.65616262 17.99039232 167.32601319 16 170 C16.4218457 170.73822998 16.84369141 171.47645996 17.27832031 172.23706055 C17.87225586 173.27644775 18.46619141 174.31583496 19.078125 175.38671875 C19.40113083 175.95174103 19.72413666 176.51676331 20.05693054 177.09890747 C21.8520706 180.23942035 23.64547479 183.38090431 25.43579102 186.52416992 C28.82262361 192.46663546 32.22179623 198.39890979 35.69921875 204.2890625 C36.52534668 205.69925659 36.52534668 205.69925659 37.36816406 207.13793945 C38.38818621 208.87632505 39.41702609 210.60957721 40.45605469 212.33666992 C43.1643242 216.9757999 44.78706991 220.5943231 45 226 C44 228.375 44 228.375 42 230 C36.93471627 231.07718311 33.00855263 230.88186257 27.97265625 229.78515625 C26.68681641 229.51123047 25.40097656 229.23730469 24.07617188 228.95507812 C22.73822372 228.65781091 21.40033376 228.36028164 20.0625 228.0625 C18.69750061 227.76778975 17.33226751 227.47415972 15.96679688 227.18164062 C12.64208091 226.46500574 9.32014055 225.73749126 6 225 C5.68772461 225.92337158 5.37544922 226.84674316 5.05371094 227.7980957 C3.88916028 231.23000148 2.70723156 234.65570841 1.52001953 238.07983398 C1.00908735 239.56127812 0.50285216 241.04435102 0.00146484 242.52905273 C-0.72103063 244.66577945 -1.46034432 246.79603439 -2.203125 248.92578125 C-2.42309143 249.58838455 -2.64305786 250.25098785 -2.86968994 250.93367004 C-4.22162846 254.74751969 -5.38665203 257.051755 -9 259 C-12 259.4375 -12 259.4375 -15 259 C-18.13862648 256.3128277 -20.11708787 253.41100131 -22.14453125 249.8359375 C-23.02612915 248.29389648 -23.02612915 248.29389648 -23.92553711 246.72070312 C-24.54823486 245.61662109 -25.17093262 244.51253906 -25.8125 243.375 C-26.80241399 241.63671055 -27.7923412 239.89842847 -28.78303528 238.1605835 C-29.46877425 236.95684557 -30.15364878 235.75261482 -30.83769226 234.5479126 C-33.30444123 230.20582303 -35.80392727 225.8837988 -38.3203125 221.5703125 C-39.01723843 220.37324876 -39.71409818 219.17614649 -40.41088867 217.97900391 C-41.74621691 215.68499384 -43.08555368 213.39348155 -44.42700195 211.10302734 C-45.02730225 210.06871582 -45.62760254 209.0344043 -46.24609375 207.96875 C-46.77904053 207.05544922 -47.3119873 206.14214844 -47.86108398 205.20117188 C-49 203 -49 203 -49 201 C-50.22203125 201.24363281 -50.22203125 201.24363281 -51.46875 201.4921875 C-55.51903557 202.07464007 -59.41609586 202.14653201 -63.5 202.125 C-64.23347656 202.12886719 -64.96695313 202.13273438 -65.72265625 202.13671875 C-69.92430334 202.12920239 -73.86141267 201.82509811 -78 201 C-78.26321045 201.70455322 -78.5264209 202.40910645 -78.79760742 203.13500977 C-80.07925055 206.18883354 -81.59139589 208.96658865 -83.23828125 211.83984375 C-83.88764648 212.97558838 -84.53701172 214.11133301 -85.20605469 215.28149414 C-85.90786127 216.50035966 -86.61001704 217.71902418 -87.3125 218.9375 C-88.03159203 220.18806017 -88.75066739 221.43862992 -89.46972656 222.68920898 C-91.29137786 225.85408191 -93.11873367 229.01562877 -94.94708252 232.17663574 C-95.95443787 233.92109889 -96.95754532 235.66801295 -97.96044922 237.41503906 C-99.71475672 240.46943441 -101.4802809 243.51701489 -103.25 246.5625 C-103.77376221 247.47700928 -104.29752441 248.39151855 -104.8371582 249.33374023 C-105.32917725 250.17364502 -105.82119629 251.0135498 -106.328125 251.87890625 C-106.7499707 252.6066626 -107.17181641 253.33441895 -107.60644531 254.08422852 C-109.18901822 256.25985039 -110.72589849 257.57085525 -113 259 C-116 259.4375 -116 259.4375 -119 259 C-122.64616593 256.06814398 -123.92481636 253.20412037 -125.359375 248.80859375 C-125.75253906 247.61685547 -126.14570313 246.42511719 -126.55078125 245.19726562 C-126.94652344 243.95654297 -127.34226562 242.71582031 -127.75 241.4375 C-128.16121094 240.19291016 -128.57242188 238.94832031 -128.99609375 237.66601562 C-132 228.4497119 -132 228.4497119 -132 225 C-132.90766113 225.18699463 -133.81532227 225.37398926 -134.75048828 225.56665039 C-138.13705559 226.25907202 -141.5252734 226.94189205 -144.91503906 227.6184082 C-146.37837184 227.91246502 -147.84095752 228.21026657 -149.30273438 228.51196289 C-151.41087881 228.94637276 -153.52139307 229.36699314 -155.6328125 229.78515625 C-156.90012207 230.04176025 -158.16743164 230.29836426 -159.47314453 230.56274414 C-163.63583245 231.07882984 -167.2125127 231.07249238 -170.875 228.875 C-172.66238147 225.89603089 -172.64406364 223.31616532 -172 220 C-170.18758208 215.85984636 -167.91682837 212.01564169 -165.625 208.125 C-164.99029785 207.0210791 -164.3555957 205.9171582 -163.70166016 204.77978516 C-161.81670937 201.51047707 -159.91150274 198.25383871 -158 195 C-156.99454509 193.27618546 -155.98931205 191.55224149 -154.984375 189.828125 C-153.3620864 187.05351277 -151.72999758 184.28519851 -150.0859375 181.5234375 C-149.74272461 180.93916992 -149.39951172 180.35490234 -149.04589844 179.75292969 C-148.31836356 178.53357851 -147.569915 177.32656356 -146.80566406 176.12988281 C-144.65993083 172.75071187 -144.65993083 172.75071187 -143.96875 168.890625 C-145.46011865 166.15644915 -147.41092589 164.05829794 -149.5 161.75 C-170.25124425 137.79617203 -175.51960736 107.77966886 -174 77 C-171.4480577 49.83041398 -156.15274949 23.79280033 -135.625 6.1875 C-97.86127565 -25.02122216 -40.21807696 -29.54129105 0 0 Z M-132.75 24.3125 C-149.87992604 42.19538983 -159.45249697 66.08053408 -159.3125 90.75 C-159.30686035 91.79986084 -159.3012207 92.84972168 -159.29541016 93.93139648 C-158.87046389 121.28152727 -146.51172037 144.35894358 -127.09765625 163.265625 C-109.00176463 179.70686805 -84.25323306 188.05504481 -59.93359375 187.3203125 C-31.5831155 185.01173334 -7.97357574 173.20749161 10.72265625 151.875 C27.11432152 131.18157695 34.60801724 105.62451358 31.71582031 79.42578125 C28.11139739 54.18515748 15.31796343 30.81167149 -5.0078125 15.12109375 C-18.50231305 5.55514884 -33.35573987 -1.98945482 -50 -4 C-51.09054687 -4.13277344 -52.18109375 -4.26554687 -53.3046875 -4.40234375 C-83.49660233 -7.24280931 -110.90334871 3.71099464 -132.75 24.3125 Z M-131 180 C-132.71690205 182.35730933 -132.71690205 182.35730933 -134.5 185.4375 C-134.84095703 186.00573486 -135.18191406 186.57396973 -135.53320312 187.15942383 C-136.28343615 188.41344705 -137.02998421 189.66967991 -137.7734375 190.92773438 C-139.08910359 193.15053966 -140.41915103 195.36438041 -141.75 197.578125 C-142.66738145 199.11415666 -143.5840574 200.65060991 -144.5 202.1875 C-145.16805664 203.30112915 -145.16805664 203.30112915 -145.84960938 204.43725586 C-148.17163377 207.97599949 -148.17163377 207.97599949 -149 212 C-144.1951097 211.53501062 -139.58342064 210.9437826 -134.875 209.875 C-130.56964134 209.02596188 -127.21696675 208.39755264 -123 210 C-121.01888268 212.75456723 -120.07680917 215.80403038 -119 219 C-118.31550304 220.87939916 -117.63098846 222.758792 -116.94580078 224.63793945 C-115.94094781 227.41732752 -114.96906862 230.20797032 -114 233 C-111.13122494 229.56968748 -108.79735588 226.1203046 -106.6171875 222.21875 C-106.00746094 221.12949219 -105.39773438 220.04023438 -104.76953125 218.91796875 C-104.14433594 217.79003906 -103.51914062 216.66210938 -102.875 215.5 C-102.24207031 214.37207031 -101.60914063 213.24414062 -100.95703125 212.08203125 C-97.12376662 205.21052024 -97.12376662 205.21052024 -94 198 C-94.680625 197.731875 -95.36125 197.46375 -96.0625 197.1875 C-102.26472493 194.68021758 -108.31562529 191.96197366 -114.3125 189 C-115.29766602 188.52046875 -115.29766602 188.52046875 -116.30273438 188.03125 C-119.69935175 186.33122758 -122.79046988 184.49983117 -125.85546875 182.25 C-128.6266522 179.80603102 -128.6266522 179.80603102 -131 180 Z M-3.6875 183.5625 C-13.18690004 189.57380755 -23.37826621 194.31490869 -34 198 C-29.73501041 206.18449119 -25.33988316 214.27829723 -20.6875 222.25 C-20.26742676 222.97630615 -19.84735352 223.7026123 -19.41455078 224.45092773 C-18.81296143 225.47295288 -18.81296143 225.47295288 -18.19921875 226.515625 C-17.84690186 227.11665039 -17.49458496 227.71767578 -17.1315918 228.33691406 C-15.92036228 230.11704254 -14.56505721 231.52720293 -13 233 C-12.80889648 232.37955811 -12.61779297 231.75911621 -12.42089844 231.11987305 C-11.54487093 228.30440919 -10.64773085 225.49611508 -9.75 222.6875 C-9.29947266 221.22280273 -9.29947266 221.22280273 -8.83984375 219.72851562 C-8.53691406 218.79072266 -8.23398437 217.85292969 -7.921875 216.88671875 C-7.64956055 216.02264404 -7.37724609 215.15856934 -7.09667969 214.26831055 C-5.80547391 211.59765318 -4.52445049 210.51516203 -2 209 C0.0078125 208.85546875 0.0078125 208.85546875 2.125 209.1875 C2.90617187 209.30351562 3.68734375 209.41953125 4.4921875 209.5390625 C7.88897047 210.16339333 11.27030971 210.84319025 14.640625 211.59765625 C17.13594322 212.02318237 19.47352521 212.06719348 22 212 C18.28642811 205.1464974 14.52764295 198.31835156 10.75 191.5 C10.09572021 190.31591553 10.09572021 190.31591553 9.42822266 189.10791016 C8.80633057 187.98715088 8.80633057 187.98715088 8.171875 186.84375 C7.6164502 185.84118164 7.6164502 185.84118164 7.04980469 184.81835938 C6.09941432 183.17219484 5.05438272 181.58157409 4 180 C0.84959731 180 -1.07078127 181.86629979 -3.6875 183.5625 Z " fill="#0096FF" transform="translate(402,28)"/>
<path d="M0 0 C12.34271504 10.34008909 20.71200181 26.28317509 22.22094727 42.35302734 C23.14427853 61.41168246 19.47612333 78.61339264 6.5625 93.375 C5.05911847 94.93368988 3.53936592 96.47683793 2 98 C1.40960938 98.62390625 0.81921875 99.2478125 0.2109375 99.890625 C-12.01193236 111.84426865 -29.55014819 116.53102789 -46.19335938 116.42236328 C-64.28062214 115.83655651 -80.54407245 107.95089215 -93 95 C-99.39468299 87.61536429 -103.82992312 79.21596191 -107 70 C-107.23332031 69.32839844 -107.46664063 68.65679687 -107.70703125 67.96484375 C-112.65714452 51.19143834 -109.70654308 33.34473544 -102 18 C-92.39308337 2.10308112 -78.73229433 -8.56351216 -61 -14 C-38.61500954 -19.40618637 -17.93634627 -13.84318007 0 0 Z M-74 9 C-75.04027344 9.75216797 -75.04027344 9.75216797 -76.1015625 10.51953125 C-86.96545202 19.13933548 -93.12253801 31.85099693 -94.875 45.4375 C-95.65932201 59.08470298 -91.77651684 72.41166564 -82.9296875 82.91015625 C-73.55496691 93.0629407 -61.85779554 100.26546279 -47.82421875 101.21484375 C-32.58606843 101.63118665 -19.12379277 97.51037484 -7.83984375 86.96484375 C3.05196099 75.33304378 7.57348526 61.9249177 7.2734375 46.20703125 C6.64679822 32.54815625 -0.46378023 20.42789074 -10.21875 11.140625 C-18.39762853 4.84564546 -28.63600021 -0.15320783 -39 -1 C-39.67417969 -1.07992187 -40.34835937 -1.15984375 -41.04296875 -1.2421875 C-52.48327928 -1.97196341 -64.923046 2.23324548 -74 9 Z " fill="#0096FF" transform="translate(382,69)"/>
<path d="M0 0 C2 1 2 1 3 3 C3.70533643 8.46635731 3.70533643 8.46635731 3 11 C-0.80961064 15.38726753 -5.44533289 18.95931056 -9.9375 22.625 C-10.68459229 23.23746582 -11.43168457 23.84993164 -12.20141602 24.48095703 C-17.47275706 28.78873164 -22.78210835 33.04620186 -28.16601562 37.21264648 C-30.78467698 39.24027993 -33.3359218 41.29024013 -35.84375 43.45703125 C-39.50241478 46.60326256 -42.02314174 48.75578544 -46.75 49.9375 C-51.52282372 48.56072393 -53.24127831 46.00351075 -56 42 C-56.65226562 41.05769531 -57.30453125 40.11539063 -57.9765625 39.14453125 C-59.36938601 37.08659539 -60.74184914 35.01473459 -62.09375 32.9296875 C-63.24480836 31.16064288 -64.4245721 29.40920391 -65.65625 27.6953125 C-68.10647967 24.19692903 -68.99050058 22.57946458 -69.0625 18.1875 C-68 15 -68 15 -66.375 13 C-62.74369678 11.47103022 -60.75194529 11.83560319 -57 13 C-51.94731158 17.23773867 -48.51729112 23.49955538 -45 29 C-40.12095541 26.34480284 -36.05069153 22.8624302 -31.8125 19.3125 C-30.29339922 18.05026299 -28.77386989 16.78854158 -27.25390625 15.52734375 C-26.15780029 14.61637939 -26.15780029 14.61637939 -25.03955078 13.68701172 C-21.06981884 10.40345322 -17.03602893 7.20151167 -13 4 C-12.17242187 3.27941406 -11.34484375 2.55882813 -10.4921875 1.81640625 C-6.68605575 -0.95765529 -4.61334192 -0.52086118 0 0 Z " fill="#0096FF" transform="translate(369,97)"/>
</svg>
