<?xml version="1.0" encoding="UTF-8"?>
<svg version="1.1" xmlns="http://www.w3.org/2000/svg" width="512" height="512">
<path d="M0 0 C1.28424199 0.6926387 2.5686741 1.38492496 3.85327148 2.0769043 C4.52172089 2.43795258 5.19017029 2.79900085 5.87887573 3.17098999 C74.7450741 40.28151814 148.62702811 66.38507211 280.8984375 96.04296875 C281.80762939 96.21159424 282.71682129 96.38021973 283.65356445 96.55395508 C289.64678281 97.58629938 293.63565234 97.57914866 298.9609375 94.41796875 C308.57579641 90.00511893 322.53345178 91.44560342 332.41796875 94.359375 C338.87235594 96.83917303 345.99590354 99.68277694 351.30859375 104.1328125 C354.22035427 106.06837585 356.81032423 106.17485661 360.2734375 106.54296875 C361.30114258 106.66128052 361.30114258 106.66128052 362.34960938 106.78198242 C366.48662713 107.24312959 370.62504956 107.58114339 374.77734375 107.87109375 C375.69974854 107.94191162 376.62215332 108.01272949 377.57250977 108.08569336 C379.3724159 108.22069825 381.17384912 108.33705305 382.97631836 108.43188477 C390.7667559 109.02253329 396.01633209 112.01941707 401.5234375 117.48046875 C410.87135513 129.07597314 411.14162191 144.37203956 410.3359375 158.48046875 C408.87051554 169.80644187 404.04595771 178.71897916 395.36328125 186.10546875 C393.11502514 187.63029756 390.88543425 188.56141273 388.3359375 189.48046875 C388.67367188 190.10953125 389.01140625 190.73859375 389.359375 191.38671875 C389.80539062 192.24265625 390.25140625 193.09859375 390.7109375 193.98046875 C391.15179688 194.81578125 391.59265625 195.65109375 392.046875 196.51171875 C395.64656277 204.80190876 395.62745007 212.62181803 395.6105957 221.54394531 C395.61494898 222.95733915 395.62013418 224.37073063 395.62608337 225.78411865 C395.63941148 229.60200041 395.64005949 233.41978282 395.63752007 237.2376833 C395.63644717 240.42887721 395.64134136 243.62005127 395.6461255 246.81124091 C395.65719704 254.33674096 395.65766992 261.86219107 395.65161133 269.38769531 C395.64555879 277.14951389 395.65792026 284.91115178 395.6791814 292.67293954 C395.69678464 299.34488208 395.70280119 306.016767 395.69954365 312.68873191 C395.69773023 316.67049061 395.7003738 320.65212009 395.71425819 324.63385773 C395.72681291 328.37352672 395.7249151 332.11291267 395.71184731 335.85257721 C395.70834711 337.87946813 395.71967389 339.90636761 395.73141479 341.93322754 C395.72440048 343.1388031 395.71738617 344.34437866 395.7101593 345.58648682 C395.71041091 347.15822851 395.71041091 347.15822851 395.71066761 348.76172256 C395.25987542 352.03231519 394.81764083 353.2859807 392.3359375 355.48046875 C389.69296531 356.21476307 387.32721227 356.70529604 384.63319397 357.07722473 C383.87517205 357.19584989 383.11715014 357.31447506 382.33615786 357.43669492 C380.76502448 357.68082008 379.19272215 357.91753246 377.61937833 358.14698052 C375.53461205 358.45145306 373.45422966 358.77483053 371.37405205 359.10901451 C367.44532811 359.73505417 363.51317338 360.33626942 359.57983398 360.93237305 C358.09276502 361.15925855 356.6057205 361.38630425 355.11869812 361.61349487 C351.14026506 362.22071446 347.16143644 362.82529928 343.18247104 363.42901969 C340.68921143 363.8073918 338.19602842 364.18626478 335.70286751 364.56528664 C327.87889263 365.75460883 320.05468134 366.94235648 312.23009914 368.12767667 C303.23663177 369.49006913 294.24398342 370.85771215 285.25199836 372.22985333 C278.26538571 373.29566865 271.27808994 374.35692401 264.29025894 375.41472179 C260.13038345 376.04452947 255.97081509 376.67621772 251.81194878 377.31265831 C247.90968716 377.90969775 244.00660531 378.50105188 240.10283089 379.08811569 C238.67552389 379.30374135 237.24851805 379.52137198 235.82185364 379.74120903 C217.63348469 382.54087515 217.63348469 382.54087515 212.8984375 380.35546875 C209.64758409 376.45444466 210.24187644 371.06699575 210.4679718 366.22776794 C210.5226059 364.99301224 210.57723999 363.75825653 210.63352966 362.48608398 C210.69997414 361.13060887 210.76655272 359.77514033 210.83325195 358.41967773 C210.89935262 356.98180012 210.96491053 355.54389747 211.02996826 354.10597229 C211.20802823 350.20858669 211.39418406 346.31162706 211.58218408 342.41470981 C211.73877376 339.15252506 211.89127065 335.89015434 212.04373902 332.62777478 C212.40391272 324.92141331 212.77050561 317.21537597 213.14135742 309.50952148 C213.52254697 301.58703595 213.89415841 293.66414413 214.26077682 285.74097198 C214.57670697 278.91922789 214.89808439 272.09775558 215.22385949 265.27647454 C215.4179898 261.21129982 215.61026938 257.14606149 215.79754066 253.0805645 C215.9742972 249.24956476 216.15794576 245.41895272 216.34661865 241.58852196 C216.41428483 240.19277902 216.47967094 238.79692311 216.54244041 237.40095139 C217.93924379 206.4777548 227.38307516 182.68027055 250.3359375 161.48046875 C251.8209375 160.49046875 251.8209375 160.49046875 253.3359375 159.48046875 C246.93579843 157.01053986 240.46346644 154.86481194 233.9296875 152.77734375 C179.32407445 135.20022062 126.26628523 114.88753306 74.3359375 90.48046875 C73.72878906 90.1958075 73.12164062 89.91114624 72.49609375 89.61785889 C59.09778884 83.33511299 45.84303678 76.83561693 32.81591797 69.81396484 C30.14179424 68.37607709 27.45975081 66.95362014 24.77734375 65.53125 C13.73725443 59.64748324 2.85244273 53.53563266 -7.9140625 47.16796875 C-9.00783203 46.52263184 -10.10160156 45.87729492 -11.22851562 45.21240234 C-36.32972747 30.25351969 -36.32972747 30.25351969 -39.6640625 20.48046875 C-40.57186791 13.41858715 -39.996738 7.27003806 -35.6640625 1.48046875 C-24.4487808 -10.45237837 -13.0272923 -7.06871719 0 0 Z M-24.6640625 12.48046875 C-24.3231757 16.8932586 -24.3231757 16.8932586 -21.78320312 20.3581543 C-20.97044922 20.87676025 -20.15769531 21.39536621 -19.3203125 21.9296875 C-18.4128125 22.51669434 -17.5053125 23.10370117 -16.5703125 23.70849609 C-15.13171875 24.58562256 -15.13171875 24.58562256 -13.6640625 25.48046875 C-12.74625 26.04330566 -11.8284375 26.60614258 -10.8828125 27.18603516 C-7.99424425 28.92068057 -5.08460658 30.61275978 -2.1640625 32.29296875 C-1.11162354 32.90188965 -0.05918457 33.51081055 1.02514648 34.13818359 C15.82652063 42.67869231 30.78503397 50.82367278 45.9609375 58.6796875 C49.04122209 60.27689185 52.10980087 61.88741824 55.1484375 63.5625 C66.65509283 69.88849685 78.59950942 75.28785209 90.53710938 80.74072266 C93.63381591 82.15630052 96.72339949 83.58667945 99.81114197 85.02168274 C130.95951426 99.47879592 162.94896082 112.0811735 195.3359375 123.48046875 C196.08814575 123.74581421 196.840354 124.01115967 197.61535645 124.2845459 C217.36972913 131.24547622 237.18993554 137.90296309 257.2734375 143.85546875 C258.0799173 144.09475098 258.88639709 144.3340332 259.71731567 144.58056641 C261.97296245 145.2472114 264.23007656 145.90848332 266.48828125 146.56640625 C267.15705292 146.7625351 267.82582458 146.95866394 268.51486206 147.16073608 C271.87127724 148.15383256 271.87127724 148.15383256 275.3359375 148.48046875 C275.48627441 147.48418457 275.48627441 147.48418457 275.63964844 146.46777344 C279.36536479 122.11121957 279.36536479 122.11121957 283.3359375 112.48046875 C282.09070313 112.22394531 280.84546875 111.96742188 279.5625 111.703125 C274.20928072 110.59678304 268.85912344 109.47604329 263.50927734 108.35351562 C260.57555344 107.73870493 257.64084241 107.12884037 254.70556641 106.52148438 C172.39927338 89.47166162 91.93532553 64.61360642 -14.18115234 9.78100586 C-19.03159187 7.24036757 -20.86273733 9.19283617 -24.6640625 12.48046875 Z M300.3359375 113.23046875 C291.09919747 124.51452744 290.24024122 142.28789266 289.76464844 156.18920898 C289.60782411 159.7984217 289.3941114 161.39320789 287.3359375 164.48046875 C284.28125 165.21875 284.28125 165.21875 280.4609375 165.79296875 C265.8706192 168.39363881 255.79981789 175.56322648 247.08203125 187.58984375 C237.82694455 201.99054791 233.27439857 216.03012541 232.375 233.02734375 C232.29466901 234.45060151 232.21397622 235.87383889 232.13296509 237.29705811 C230.89011398 259.54139335 229.90660487 281.80097087 228.88079834 304.05609131 C228.65165049 309.01294706 228.41987289 313.96967847 228.1880703 318.92641068 C227.96409376 323.72008981 227.74132497 328.51382442 227.51897049 333.30757904 C227.41319329 335.58656868 227.30713533 337.86554532 227.20078659 340.14450836 C227.05374692 343.30103866 226.90823842 346.45763576 226.76318359 349.61425781 C226.71957199 350.54496597 226.67596039 351.47567413 226.63102722 352.43458557 C226.59184677 353.2940831 226.55266632 354.15358063 226.51229858 355.03912354 C226.4780245 355.78070835 226.44375042 356.52229317 226.40843773 357.28635025 C226.32915313 359.68578835 226.32403132 362.07989461 226.3359375 364.48046875 C235.48641548 363.90458216 244.4790939 362.84113903 253.53979492 361.45507812 C254.90784914 361.2492668 256.27596428 361.04386005 257.64413452 360.83882141 C261.31553268 360.28737208 264.98602424 359.73010168 268.65633941 359.17149544 C272.51061809 358.58573527 276.36562986 358.00483626 280.22053528 357.42321777 C286.67885652 356.4480338 293.13659808 355.46908338 299.59399414 354.48779297 C307.06147334 353.35304972 314.52981596 352.22413366 321.99864501 351.0983119 C329.19927471 350.01280062 336.39931677 348.92344002 343.59908485 347.83222961 C346.65907004 347.36850858 349.71925005 346.90610502 352.77959251 346.44474792 C356.37278724 345.90286786 359.96545427 345.35761594 363.55773544 344.80971336 C365.50827506 344.51303025 367.45932483 344.2197073 369.41038513 343.9264679 C371.14067963 343.66152779 371.14067963 343.66152779 372.90592957 343.39123535 C373.91223514 343.23859474 374.91854071 343.08595413 375.95534039 342.92868805 C378.34106667 342.59206935 378.34106667 342.59206935 380.3359375 341.48046875 C380.42962495 324.73786003 380.50003572 307.99533712 380.54318619 291.25252914 C380.56375954 283.47750809 380.59177928 275.70265048 380.63769531 267.92773438 C380.67772413 261.14642668 380.70340825 254.36523743 380.71229148 247.58381486 C380.7174793 243.99729376 380.72956132 240.41111132 380.75885773 236.8246994 C380.79139544 232.80843971 380.79188672 228.79275848 380.79003906 224.77636719 C380.81161072 223.01768814 380.81161072 223.01768814 380.83361816 221.22348022 C380.77347386 209.0786278 377.61791469 199.45117585 369.3359375 190.48046875 C368.28817139 189.24598999 368.28817139 189.24598999 367.21923828 187.98657227 C363.77434139 184.99234139 360.68333036 184.18197366 356.32421875 183.34765625 C355.55595261 183.18427765 354.78768646 183.02089905 353.99613953 182.85256958 C351.55021079 182.33578893 349.10001555 181.84467363 346.6484375 181.35546875 C343.43475009 180.69308371 340.22300777 180.02156508 337.01171875 179.34765625 C336.24442947 179.18706726 335.4771402 179.02647827 334.68659973 178.86102295 C317.8932222 175.30413075 317.8932222 175.30413075 313.6484375 169.6484375 C306.09843348 157.17744872 304.33265832 144.13791397 307.01953125 129.84375 C308.79061469 124.10426383 311.26806463 119.57495326 315.1640625 115.00390625 C316.53917442 113.53659707 316.53917442 113.53659707 316.3359375 111.48046875 C317.6559375 110.82046875 318.9759375 110.16046875 320.3359375 109.48046875 C320.3359375 108.82046875 320.3359375 108.16046875 320.3359375 107.48046875 C318.44083051 107.39886127 316.54469246 107.34100416 314.6484375 107.29296875 C313.59269531 107.25816406 312.53695312 107.22335938 311.44921875 107.1875 C306.77507506 107.62735041 303.51999682 109.86549697 300.3359375 113.23046875 Z M327.98828125 122.15234375 C325.96129714 124.4371879 324.1983232 126.80148465 322.9609375 129.60546875 C322.66445313 130.24742187 322.36796875 130.889375 322.0625 131.55078125 C318.90260928 139.9431792 319.67663421 148.11460726 323.0703125 156.2890625 C325.16615696 159.91797837 327.1856671 162.0753594 331.18920898 163.48535156 C332.26759033 163.71577148 333.34597168 163.94619141 334.45703125 164.18359375 C335.63974609 164.44140625 336.82246094 164.69921875 338.04101562 164.96484375 C339.88856445 165.34382813 339.88856445 165.34382813 341.7734375 165.73046875 C343.00126953 165.99859375 344.22910156 166.26671875 345.49414062 166.54296875 C352.84834209 168.13619015 352.84834209 168.13619015 360.3359375 168.48046875 C360.01367188 167.38089844 359.69140625 166.28132813 359.359375 165.1484375 C358.08718492 160.02702805 357.95319777 155.0509798 357.9609375 149.79296875 C357.96009155 148.34410278 357.96009155 148.34410278 357.95922852 146.8659668 C358.07819331 139.0994511 359.36619828 132.6961002 362.3359375 125.48046875 C362.6659375 124.49046875 362.9959375 123.50046875 363.3359375 122.48046875 C359.05359451 121.90011015 354.76861021 121.36473847 350.47583008 120.86914062 C349.01860595 120.6946808 347.56275191 120.50832756 346.10864258 120.30957031 C336.53024497 118.62968246 336.53024497 118.62968246 327.98828125 122.15234375 Z M378.6484375 126.98046875 C372.35235272 135.705911 371.65753503 145.06214512 372.3359375 155.48046875 C373.65871453 162.60012158 376.18092569 168.32545694 381.3359375 173.48046875 C383.70607942 174.14887729 383.70607942 174.14887729 386.3359375 173.48046875 C393.0058899 167.12813313 395.38615603 158.5360816 395.6484375 149.48046875 C395.56582067 140.77029464 393.36647321 131.94916958 387.3359375 125.48046875 C383.09475207 123.76594698 382.04196922 123.82369506 378.6484375 126.98046875 Z " fill="#000000" transform="translate(70.6640625,68.51953125)"/>
</svg>
