<?xml version="1.0" encoding="UTF-8"?>
<svg version="1.1" xmlns="http://www.w3.org/2000/svg" width="512" height="512">
<path d="M0 0 C16.16545791 12.29379303 25.96110383 28.23440269 29.9609375 48.0703125 C33.88178838 77.09899742 18.62492248 102.61375647 3.38671875 126.22265625 C4.11890625 125.76117188 4.85109375 125.2996875 5.60546875 124.82421875 C47.77410915 99.42263298 98.39695279 92.99983047 145.92871094 104.63842773 C174.47905364 112.01906893 201.58140033 125.60222974 223.05078125 146.0078125 C225.08069748 147.93249896 227.16127328 149.7025723 229.32421875 151.47265625 C249.04873 168.78684026 265.98595256 196.1172947 273.38671875 221.22265625 C273.38671875 222.21265625 273.38671875 223.20265625 273.38671875 224.22265625 C274.37671875 224.42890625 275.36671875 224.63515625 276.38671875 224.84765625 C283.86314483 227.01823156 288.93461554 232.55157406 293.80859375 238.34765625 C296.40331149 241.43048921 299.18983779 244.23382208 302.296875 246.80078125 C310.26011864 253.40952924 314.68564956 260.49229886 316.13671875 270.84765625 C317.01569411 281.72090697 314.15124128 293.55690598 307.76171875 302.49609375 C305.78047198 306.42481604 305.90354128 310.06735361 305.82421875 314.41015625 C305.24789479 330.13322695 301.88016943 342.03671352 291.38671875 354.22265625 C290.39671875 354.88265625 289.40671875 355.54265625 288.38671875 356.22265625 C288.93117523 360.71442224 290.08488379 365.01970567 293.38671875 368.22265625 C297.305525 369.44354203 301.24273242 369.60655579 305.32421875 369.84765625 C324.04332619 371.52829437 339.80245813 377.98771156 352.32421875 392.66015625 C364.74885865 408.63129298 367.52837968 425.39003882 367.625 445.046875 C367.62907553 445.75041422 367.63315105 446.45395344 367.63735008 447.17881203 C367.65808147 450.89337482 367.67244589 454.60790194 367.68188477 458.32250977 C367.69300397 462.14914989 367.72750273 465.97521734 367.76705647 469.80165386 C367.79320244 472.75709607 367.80157407 475.71240008 367.80516624 478.66794777 C367.81002684 480.07893617 367.82162595 481.48991862 367.84020424 482.90079308 C367.86457826 484.87211421 367.86121258 486.84371892 367.85668945 488.81518555 C367.86548882 490.49441353 367.86548882 490.49441353 367.87446594 492.20756531 C367.24573272 496.094185 366.25819826 497.52399967 363.38671875 500.22265625 C360.36514092 500.71958741 357.90576075 500.89078174 354.88427734 500.84411621 C354.01796881 500.85050503 353.15166027 500.85689385 352.25909996 500.86347628 C349.35065145 500.8787603 346.44355774 500.85824256 343.53515625 500.83789062 C341.45240832 500.84139079 339.36966306 500.84704819 337.28692627 500.85470581 C331.62574122 500.8689783 325.96504045 500.85186789 320.30390167 500.82842064 C314.38538269 500.80834618 308.46688449 500.81418942 302.54833984 500.81652832 C292.60831696 500.81647471 282.66848394 500.79669569 272.72851562 500.76464844 C261.22910025 500.72775412 249.72993367 500.71897252 238.23046684 500.72594595 C227.17796334 500.7322466 216.12554534 500.72150476 205.07305908 500.70198059 C200.36499821 500.69379613 195.65698097 500.69109897 190.94891357 500.69267273 C185.40686978 500.69355032 179.8650632 500.67936929 174.32308197 500.6534462 C172.286498 500.6462711 170.24988882 500.6442072 168.21329498 500.64756393 C165.4383242 500.65126589 162.66405062 500.63657597 159.88916016 500.61706543 C159.07865896 500.62239336 158.26815777 500.62772128 157.43309593 500.63321066 C154.2054344 500.59391945 151.78406105 500.42716753 148.88943481 498.93730927 C146.3112349 495.99549054 146.78295525 492.34278977 146.77734375 488.6171875 C146.7608075 487.77798264 146.74427124 486.93877777 146.72723389 486.07414246 C146.67865852 483.39440667 146.65736247 480.71523868 146.63671875 478.03515625 C146.60856694 476.21807024 146.57864062 474.4010108 146.546875 472.58398438 C146.47289735 468.13025507 146.42338132 463.67684274 146.38671875 459.22265625 C145.79769775 459.33859131 145.20867676 459.45452637 144.60180664 459.57397461 C141.88500211 460.10647788 139.16713232 460.63334403 136.44921875 461.16015625 C135.52302734 461.34255859 134.59683594 461.52496094 133.64257812 461.71289062 C95.54450033 469.06515125 55.04854704 463.56963241 20.38671875 446.22265625 C19.66548828 445.86945313 18.94425781 445.51625 18.20117188 445.15234375 C-24.27421715 424.23443737 -57.75687578 385.8580401 -73.08203125 341.05859375 C-77.19612694 328.40103051 -80.22903529 315.46956817 -81.61328125 302.22265625 C-81.72414063 301.17207031 -81.835 300.12148438 -81.94921875 299.0390625 C-85.58635839 258.88307481 -76.86091831 212.53973651 -51.51171875 180.08203125 C-50.21131401 177.39075883 -50.7725984 176.08452872 -51.61328125 173.22265625 C-52.96259907 170.94608637 -54.33303323 168.81592593 -55.84765625 166.65625 C-56.27726654 166.02938797 -56.70687683 165.40252594 -57.14950562 164.75666809 C-58.06982062 163.41540586 -58.99375293 162.07661974 -59.92095947 160.7401123 C-61.86311685 157.93934894 -63.78602624 155.12558606 -65.70986938 152.31222534 C-66.67041748 150.90776897 -67.63182131 149.50389747 -68.59408569 148.10061646 C-115.19974979 80.11544682 -115.19974979 80.11544682 -109.0234375 45.66601562 C-107.73051892 39.09175551 -105.63426663 33.21483056 -102.61328125 27.22265625 C-102.1440625 26.25070313 -101.67484375 25.27875 -101.19140625 24.27734375 C-92.47569289 7.75200604 -77.18545215 -3.89793319 -59.61328125 -9.77734375 C-39.34061813 -15.47826235 -17.36622918 -11.81111252 0 0 Z M-80.61328125 21.22265625 C-90.70209963 33.42261569 -95.68561747 47.45335988 -95.61328125 63.22265625 C-92.51350319 92.44913514 -69.63689143 119.65894726 -53.61328125 143.22265625 C-52.58799316 144.73085938 -52.58799316 144.73085938 -51.54199219 146.26953125 C-47.9146571 151.59802348 -44.27195612 156.91563847 -40.61328125 162.22265625 C-36.19893037 158.15362683 -33.01182745 153.66188088 -29.71875 148.66015625 C-29.16770096 147.83241699 -28.61665192 147.00467773 -28.04890442 146.15185547 C-26.88559494 144.40203371 -25.7250602 142.65036447 -24.56713867 140.89697266 C-22.82235885 138.25532536 -21.06923513 135.61938587 -19.31445312 132.984375 C8.37993922 94.47889895 8.37993922 94.47889895 14.703125 49.35546875 C11.46524526 36.21585719 5.90236356 26.77198476 -3.61328125 17.22265625 C-4.16628906 16.64644531 -4.71929687 16.07023437 -5.2890625 15.4765625 C-15.748204 5.48457868 -30.11548312 2.60194633 -44.02734375 2.91015625 C-58.40847905 3.62415552 -70.82017755 10.99187194 -80.61328125 21.22265625 Z M-13.61328125 159.22265625 C-15.73781747 161.03444348 -17.87093027 162.8340248 -20.01953125 164.6171875 C-21.75135976 166.36175005 -22.56761909 168.01650189 -23.61328125 170.22265625 C-12.00914543 171.65285786 -0.47635184 171.03788238 11.17089844 170.62939453 C20.56827989 170.3085168 29.90639351 170.10254962 39.30078125 170.609375 C40.02637238 170.64788574 40.7519635 170.68639648 41.49954224 170.72607422 C49.94075862 171.26384686 57.76391774 172.75884542 64.38671875 178.22265625 C69.40040835 183.92788924 69.10773679 190.80360512 68.64746094 198.03417969 C67.25435165 209.72690597 61.32467794 221.11441753 56.28344727 231.58666992 C55.71968384 232.77740112 55.71968384 232.77740112 55.14453125 233.9921875 C54.80566895 234.68932861 54.46680664 235.38646973 54.11767578 236.10473633 C53.24681565 238.62802011 53.12400228 240.57118134 53.38671875 243.22265625 C57.34277679 246.70493488 62.04516811 246.99444695 67.07421875 247.66015625 C79.65606048 249.58369596 88.83103589 252.92412112 96.98828125 263.25 C102.62610973 272.1023798 103.30690244 283.19251174 101.21875 293.26953125 C99.40993596 299.68954729 97.19495777 306.18573841 92.94921875 311.41015625 C91.1834406 314.58855693 91.2775287 315.19263311 92.01171875 318.59765625 C92.45738869 320.14303124 92.91805079 321.68409982 93.38671875 323.22265625 C96.77130015 334.83226818 97.72837814 349.74049634 92.63671875 360.94921875 C92.22421875 361.69945312 91.81171875 362.4496875 91.38671875 363.22265625 C90.97421875 363.99351562 90.56171875 364.764375 90.13671875 365.55859375 C84.54275326 374.87127493 76.08729831 381.55981728 66.38671875 386.22265625 C68.08421669 390.97752617 70.57294823 395.17365605 73.07421875 399.53515625 C80.91161922 413.46105711 87.72517335 427.41109658 88.95703125 443.58203125 C89.03969238 444.64389648 89.12235352 445.70576172 89.20751953 446.79980469 C89.26665527 447.5993457 89.32579102 448.39888672 89.38671875 449.22265625 C109.14104802 449.82043623 128.36770308 449.05445387 147.38671875 443.22265625 C147.44279297 441.37414062 147.44279297 441.37414062 147.5 439.48828125 C148.18471206 420.85392754 151.79337379 405.63100658 164.38671875 391.22265625 C164.89589844 390.619375 165.40507812 390.01609375 165.9296875 389.39453125 C176.8559881 377.41606837 192.42581838 371.50911893 208.28588867 370.73193359 C216.40008871 370.57083296 216.40008871 370.57083296 223.2109375 366.73046875 C226.36520862 361.83496292 226.36520862 361.83496292 227.38671875 356.22265625 C226.01890403 354.99403706 226.01890403 354.99403706 224.26171875 353.72265625 C216.3274002 347.07065181 212.23448555 337.23896589 210.38671875 327.22265625 C210.1952768 323.78659114 210.17535785 320.35089119 210.13671875 316.91015625 C209.99485301 306.31973577 206.70643252 299.18820833 201.38671875 290.22265625 C201.05671875 289.23265625 200.72671875 288.24265625 200.38671875 287.22265625 C192.3592646 283.03381019 182.84020892 285.19609665 174.32421875 286.72265625 C160.50427286 289.17423669 146.81365979 289.45287329 134.32421875 281.97265625 C126.39033083 276.4154396 122.96192836 269.66669557 120.69921875 260.41015625 C119.11892017 244.29111069 122.71456906 228.74220352 132.9375 215.8828125 C138.22081818 209.65421796 143.94108109 204.7127989 151.38671875 201.22265625 C152.06734375 200.88621094 152.74796875 200.54976563 153.44921875 200.203125 C162.0539932 196.63409923 173.45356399 196.87412052 182.19921875 199.78515625 C188.01074722 202.24722595 193.16680679 205.70998033 198.38671875 209.22265625 C204.87398218 213.61336157 204.87398218 213.61336157 212.26171875 215.91015625 C215.45759361 215.42510056 215.45759361 215.42510056 217.88671875 213.41015625 C220.61328006 207.61621347 219.42849654 202.24585454 217.390625 196.33203125 C214.28465679 189.43807215 209.97177126 184.16055876 204.99853516 178.5793457 C195.48112579 167.81648833 188.02134362 155.57346936 185.19921875 141.34765625 C184.10013303 137.26116199 183.01719708 135.34935199 179.44921875 133.03515625 C177.45901758 132.03427019 175.43110798 131.10761177 173.38671875 130.22265625 C172.33871094 129.75714355 172.33871094 129.75714355 171.26953125 129.28222656 C109.16536678 101.96789497 36.14750301 112.26148054 -13.61328125 159.22265625 Z M203.38671875 150.22265625 C207.41459567 158.2396805 212.65500059 164.86081683 218.46875 171.65625 C229.34964433 184.6592308 233.83855821 197.32687457 232.38671875 214.22265625 C230.79891071 220.67312641 227.82326577 224.52117743 222.38671875 228.22265625 C213.94630788 231.03612654 205.34564521 229.57742822 197.4375 225.921875 C192.87067575 223.3782533 188.68608994 220.42345665 184.4921875 217.30859375 C177.26769884 212.45591835 170.93791763 211.06649926 162.38671875 212.22265625 C151.1154508 215.96907202 143.64158009 223.77796897 138.38671875 234.22265625 C134.82063983 243.7356962 132.32794957 252.66230271 136.4140625 262.3359375 C139.42103499 268.16873956 143.09596255 271.08829254 149.38671875 273.22265625 C157.45732538 275.0871098 164.96469589 274.42954094 173.01171875 272.72265625 C181.50353898 270.92541837 189.74217772 270.93379164 198.38671875 271.22265625 C198.60585938 270.46082031 198.825 269.69898438 199.05078125 268.9140625 C202.31589917 258.28252001 206.18756061 251.50278642 215.2265625 244.96875 C217.40712151 243.20616433 218.84034659 241.50664098 220.44921875 239.22265625 C228.12493015 228.43911605 238.3168026 224.10031909 251.19921875 221.91015625 C252.92641815 221.66660549 254.65500536 221.43170994 256.38671875 221.22265625 C254.45295368 214.80438428 251.97227891 208.94827997 248.82421875 203.03515625 C248.38585693 202.20999512 247.94749512 201.38483398 247.49584961 200.53466797 C237.38680276 181.90542251 222.48003315 162.93306952 205.38671875 150.22265625 C204.72671875 150.22265625 204.06671875 150.22265625 203.38671875 150.22265625 Z M-46.61328125 200.22265625 C-47.50918019 201.85237762 -48.40766169 203.48069361 -49.3125 205.10546875 C-49.99148586 206.51181235 -50.65453149 207.92597226 -51.30078125 209.34765625 C-51.84448364 210.52751099 -51.84448364 210.52751099 -52.39916992 211.73120117 C-70.88667086 252.93759727 -72.45610202 299.16642869 -56.40698242 341.45263672 C-49.42125376 359.08568228 -40.18605061 375.96915209 -27.61328125 390.22265625 C-26.87078125 391.07472656 -26.12828125 391.92679688 -25.36328125 392.8046875 C-23.14637525 395.31025313 -20.89368121 397.77481433 -18.61328125 400.22265625 C-17.9171875 400.97289062 -17.22109375 401.723125 -16.50390625 402.49609375 C3.37119847 423.16910413 29.98111245 436.72132548 57.38671875 444.22265625 C58.05590332 444.40586426 58.72508789 444.58907227 59.41455078 444.77783203 C66.87123359 447.06329598 66.87123359 447.06329598 74.38671875 446.22265625 C75.12543484 427.01603785 62.42632673 408.01614658 51.87841797 392.82836914 C48.75499323 388.23660455 47.14774001 384.63830354 47.546875 378.93359375 C48.38671875 377.22265625 48.38671875 377.22265625 50.3203125 376.38671875 C51.14660156 376.20882812 51.97289062 376.0309375 52.82421875 375.84765625 C62.81198186 373.2185455 72.03193979 367.20317732 77.63671875 358.47265625 C82.47444599 349.8637873 83.24914944 341.91893605 81.38671875 332.22265625 C80.58330991 329.7886446 79.72730243 327.37147228 78.82421875 324.97265625 C75.31421206 315.58518969 75.31421206 315.58518969 76.38671875 310.22265625 C77.97601895 307.62276842 79.73384779 305.21821654 81.5625 302.78125 C87.23630022 294.82335034 88.40683666 286.85566842 87.38671875 277.22265625 C85.65934019 271.39275361 81.62713445 267.19125739 76.38671875 264.22265625 C71.26239925 262.53493599 65.90890309 261.67284276 60.61816406 260.66992188 C44.90872003 257.52115804 44.90872003 257.52115804 40.38671875 251.22265625 C35.51729943 236.6143983 44.57065446 221.46711162 50.87109375 208.625 C53.21753224 203.35760844 54.67023507 198.57100188 54.51171875 192.78515625 C54.49367188 191.92019531 54.475625 191.05523437 54.45703125 190.1640625 C54.43382812 189.52339844 54.410625 188.88273438 54.38671875 188.22265625 C49.19599459 185.67142624 44.84431029 184.74367007 39.03979492 184.64404297 C38.23553574 184.6195105 37.43127655 184.59497803 36.60264587 184.56970215 C33.96172497 184.49573974 31.32127964 184.44576224 28.6796875 184.40234375 C27.77185328 184.38637272 26.86401905 184.37040169 25.9286747 184.35394669 C21.12562315 184.27402231 16.32279841 184.21580792 11.51928711 184.17236328 C7.5591674 184.13231685 3.60367819 184.0487326 -0.35473633 183.92626953 C-5.15508741 183.77781502 -9.95124215 183.70395887 -14.7537899 183.68268204 C-16.57415465 183.66262892 -18.39443556 183.61717131 -20.21348 183.54500961 C-35.0645645 182.98933799 -40.26922602 186.94517148 -46.61328125 200.22265625 Z M233.38671875 245.22265625 C231.58132484 247.68677496 229.91380276 250.21449868 228.24609375 252.7734375 C226.28258509 255.35982391 224.33290889 256.96706378 221.69921875 258.84765625 C217.35390557 262.02878143 214.78963855 264.95935312 213.38671875 270.22265625 C212.78267253 275.42372954 212.74065621 279.60792319 215.38671875 284.22265625 C215.98484375 283.56265625 216.58296875 282.90265625 217.19921875 282.22265625 C229.23917022 270.28445084 243.76513632 263.81089232 260.63671875 263.84765625 C274.199372 263.91364309 284.08699054 267.03212954 294.38671875 276.22265625 C295.96507564 278.16588006 297.1356826 280.0469412 298.38671875 282.22265625 C299.04671875 282.22265625 299.70671875 282.22265625 300.38671875 282.22265625 C301.61854358 275.81123065 301.63035677 270.9996466 298.38671875 265.22265625 C295.60060084 261.13865732 292.43124545 258.16258496 288.38671875 255.34765625 C285.20490245 253.09739833 283.32428981 250.90208947 281.26171875 247.59765625 C277.24623591 241.19865151 272.23954113 238.71154482 265.09375 236.76171875 C253.5564135 234.46424049 241.84342285 236.73041978 233.38671875 245.22265625 Z M227.94921875 293.41015625 C223.70633688 299.27157616 224.17029948 304.78777095 224.13671875 311.78515625 C224.11609375 312.83251953 224.09546875 313.87988281 224.07421875 314.95898438 C224.02191519 325.4785375 225.85386017 334.41768987 233.29296875 342.22265625 C240.37678088 349.00715237 247.01950822 352.35205679 256.88671875 352.72265625 C266.99207637 352.35497305 275.2545329 348.38211623 282.38671875 341.22265625 C289.26292056 332.19672111 290.73727385 323.41407908 290.69921875 312.34765625 C290.71533203 311.41824219 290.73144531 310.48882812 290.74804688 309.53125 C290.75458909 300.14971802 289.15815591 291.83398067 282.43359375 284.984375 C274.61711898 278.2568366 266.8849994 277.26852426 256.875 277.73828125 C245.23473436 278.71591544 235.07052006 284.23980126 227.94921875 293.41015625 Z M240.38671875 364.22265625 C238.07671875 368.18265625 235.76671875 372.14265625 233.38671875 376.22265625 C237.51173677 382.54894536 241.85497387 388.59154747 246.51171875 394.53515625 C247.11886719 395.31955078 247.72601563 396.10394531 248.3515625 396.91210938 C251.19226419 400.55427265 253.99066611 404.07159249 257.38671875 407.22265625 C265.56202275 397.59829042 272.9551863 387.42383522 280.38671875 377.22265625 C278.40671875 373.26265625 276.42671875 369.30265625 274.38671875 365.22265625 C273.23171875 365.38765625 272.07671875 365.55265625 270.88671875 365.72265625 C260.69043826 366.83585776 250.29894501 367.05472089 240.38671875 364.22265625 Z M208.9296875 384.484375 C195.36734294 386.20532443 183.40806846 391.44773749 174.09375 401.76171875 C167.30238585 410.60450809 162.2490982 420.81623719 162.27319336 432.09277344 C162.27326889 433.27369568 162.27334442 434.45461792 162.27342224 435.67132568 C162.27858353 436.94123352 162.28374481 438.21114136 162.2890625 439.51953125 C162.29047745 440.82343811 162.2918924 442.12734497 162.29335022 443.47076416 C162.29716008 446.9296868 162.30697724 450.38856716 162.3180542 453.84747314 C162.32830129 457.38008044 162.3328549 460.91269461 162.33789062 464.4453125 C162.34860093 471.37111283 162.36618529 478.29687815 162.38671875 485.22265625 C170.30671875 485.22265625 178.22671875 485.22265625 186.38671875 485.22265625 C186.43570312 482.53753906 186.4846875 479.85242188 186.53515625 477.0859375 C186.58920662 474.47789056 186.64649816 471.86993349 186.70410156 469.26196289 C186.74232242 467.45311207 186.77718725 465.64418704 186.80859375 463.83520508 C186.85439432 461.23101323 186.91236349 458.62732925 186.97265625 456.0234375 C186.98998306 454.81534172 186.98998306 454.81534172 187.00765991 453.58283997 C187.1166598 449.41142576 187.33899099 445.9719721 189.38671875 442.22265625 C192.15772269 440.83715428 194.32018935 441.03490955 197.38671875 441.22265625 C200.38671875 443.22265625 200.38671875 443.22265625 201.38671875 446.22265625 C201.71671875 459.09265625 202.04671875 471.96265625 202.38671875 485.22265625 C238.68671875 485.22265625 274.98671875 485.22265625 312.38671875 485.22265625 C312.71671875 471.69265625 313.04671875 458.16265625 313.38671875 444.22265625 C316.38671875 441.22265625 316.38671875 441.22265625 319.32421875 440.78515625 C322.38671875 441.22265625 322.38671875 441.22265625 324.54003906 442.67871094 C327.27353493 446.44431471 326.98955313 449.81540306 326.99609375 454.36328125 C327.01263 455.24546326 327.02916626 456.12764526 327.04620361 457.03656006 C327.09471069 459.84866275 327.1160603 462.66022457 327.13671875 465.47265625 C327.16487621 467.38153767 327.19480332 469.29039386 327.2265625 471.19921875 C327.30379715 475.87394733 327.3442896 480.5469641 327.38671875 485.22265625 C335.63671875 485.22265625 343.88671875 485.22265625 352.38671875 485.22265625 C352.4328488 478.03661994 352.4726093 470.85110593 352.49658203 463.66503906 C352.50658518 461.2249171 352.52019197 458.78480695 352.53759766 456.34472656 C352.5620975 452.81963162 352.57325908 449.29469637 352.58203125 445.76953125 C352.59235382 444.69403015 352.60267639 443.61852905 352.61331177 442.51043701 C352.61571962 425.93058353 349.1355043 411.43800007 337.38671875 399.22265625 C329.81744611 392.22722739 321.31255605 387.84732676 311.38671875 385.22265625 C310.73058594 385.02841064 310.07445312 384.83416504 309.3984375 384.6340332 C304.02765942 383.1716362 298.72994226 382.27825821 293.38671875 384.22265625 C287.35827098 389.06094411 283.33671675 395.96592887 279.21777344 402.40966797 C276.55432455 406.50143572 273.60769629 410.35187315 270.63671875 414.22265625 C269.70303265 415.47161503 268.77064447 416.72154563 267.83984375 417.97265625 C267.42033447 418.52646973 267.0008252 419.0802832 266.56860352 419.65087891 C265.45977661 421.1254973 264.38107534 422.62263263 263.3046875 424.12109375 C261.38671875 426.22265625 261.38671875 426.22265625 257.44921875 426.84765625 C254.4156255 426.90796625 253.46022001 426.2847044 251.10546875 424.296875 C247.35920633 420.26958927 244.12673852 415.79996593 240.82421875 411.41015625 C240.12039063 410.48759033 239.4165625 409.56502441 238.69140625 408.61450195 C235.35532846 404.22908844 232.0784268 399.82364604 228.953125 395.28515625 C228.43113525 394.54241455 227.90914551 393.79967285 227.37133789 393.03442383 C226.40653655 391.65393765 225.46285527 390.25836109 224.54467773 388.84643555 C223.122 386.70923243 223.122 386.70923243 220.38671875 384.22265625 C216.31806946 383.74399163 212.98496984 384.17736492 208.9296875 384.484375 Z " fill="#000000" transform="translate(127.61328125,11.77734375)"/>
<path d="M0 0 C2.48405436 2.23564893 2.93906627 3.64201436 3.5 6.9375 C2.84800948 10.93094194 1.03273602 12.54868447 -2 15 C-5.52714272 17.40052715 -9.15853533 19.6112869 -12.8125 21.8125 C-14.28106445 22.7087207 -14.28106445 22.7087207 -15.77929688 23.62304688 C-18.18243799 25.08837682 -20.58932958 26.54710221 -23 28 C-22.28271729 28.11480713 -21.56543457 28.22961426 -20.82641602 28.34790039 C19.0802771 34.83888178 56.98378687 46.93273991 90 71 C90.5583252 71.40428223 91.11665039 71.80856445 91.69189453 72.22509766 C98.99671616 77.55941458 105.75543655 83.34762498 112.34765625 89.53515625 C114.45711064 91.49548868 116.58945942 93.36054683 118.8125 95.1875 C121.93499311 97.82728886 124.55809265 100.77515031 127.19921875 103.890625 C128.38377319 105.2781725 129.59446336 106.64389635 130.83203125 107.984375 C141.97296621 120.05561207 150.80097372 133.82251705 159 148 C159.39960938 148.68787598 159.79921875 149.37575195 160.2109375 150.08447266 C180.92115395 186.17966953 180.92115395 186.17966953 179 201 C176.9375 203.5 176.9375 203.5 174 205 C170.375 205 170.375 205 167 204 C164.62669002 201.36608135 163.3955396 198.80252853 162.2734375 195.46484375 C161.81650513 194.14178223 161.81650513 194.14178223 161.3503418 192.79199219 C160.86754761 191.37901855 160.86754761 191.37901855 160.375 189.9375 C146.85151889 151.76906807 122.93603331 117.10180814 91 92 C89.99066406 91.1853125 88.98132813 90.370625 87.94140625 89.53125 C80.05520321 83.23033596 71.80959417 77.91541181 63 73 C62.21592773 72.56010742 61.43185547 72.12021484 60.62402344 71.66699219 C35.72570881 57.8259735 4.10603191 44.19274488 -25 45 C-24.00033203 45.81791016 -24.00033203 45.81791016 -22.98046875 46.65234375 C-21.0427616 48.23774051 -19.10667566 49.82511999 -17.171875 51.4140625 C-15.09262303 53.11678739 -12.99838469 54.79273574 -10.890625 56.4609375 C-9.42882812 57.62496094 -9.42882812 57.62496094 -7.9375 58.8125 C-7.03902344 59.52019531 -6.14054687 60.22789063 -5.21484375 60.95703125 C-3.06541264 62.93966348 -1.96352002 64.26448914 -1 67 C-1.19271449 70.14767008 -1.44838407 72.23824467 -3.3125 74.8125 C-5.31813411 76.22387215 -6.54684582 76.78354522 -9 77 C-13.67219154 75.63352717 -16.87325248 72.79930588 -20.4375 69.625 C-21.6821734 68.53762503 -22.92696856 67.45038942 -24.171875 66.36328125 C-24.80544922 65.80592285 -25.43902344 65.24856445 -26.09179688 64.67431641 C-29.10428829 62.03106332 -32.14493404 59.42101569 -35.1875 56.8125 C-35.7640332 56.31637207 -36.34056641 55.82024414 -36.93457031 55.30908203 C-41.47374402 51.41486749 -46.10335739 47.64981604 -50.79296875 43.9375 C-54.09666813 41.03726125 -55.77241949 39.00514724 -56.75 34.6875 C-55.76616038 29.85028852 -54.06458183 28.76062687 -50.12109375 25.9921875 C-45.58104129 23.09428168 -41.00195954 20.26549176 -36.38500977 17.49169922 C-29.28992256 13.22604856 -22.36254907 8.72393892 -15.46166992 4.15185547 C-14.66092041 3.62479004 -13.8601709 3.09772461 -13.03515625 2.5546875 C-12.3275415 2.08530762 -11.61992676 1.61592773 -10.89086914 1.13232422 C-6.97132216 -1.2148493 -4.33359179 -1.17368111 0 0 Z " fill="#000000" transform="translate(278,28)"/>
<path d="M0 0 C8.25043462 4.95609147 14.26675088 11.51285741 17.0234375 20.765625 C19.24728007 30.09305611 18.39540257 38.16752436 13.95703125 46.75390625 C9.25732629 54.37331892 2.79357709 59.61028913 -5.7890625 62.328125 C-14.89623961 64.03820629 -23.87203659 63.62532294 -32.109375 59.03515625 C-34.15819898 57.58228297 -35.96946418 56.05796735 -37.7890625 54.328125 C-38.34335938 53.8021875 -38.89765625 53.27625 -39.46875 52.734375 C-45.77158552 46.08660818 -48.01475112 38.89868806 -48.2890625 29.828125 C-47.96112184 19.64146829 -45.0771833 12.72371741 -38.08203125 5.30859375 C-27.77693705 -3.59205831 -12.35930306 -5.83063467 0 0 Z M-30.16796875 19.125 C-32.96883165 24.0045521 -33.74564594 28.79153601 -32.7890625 34.328125 C-31.0414597 39.60831528 -28.59069342 43.35568681 -23.7890625 46.328125 C-18.66616608 48.77314375 -14.20965567 48.5349361 -8.7890625 47.328125 C-4.42383884 45.44314206 -1.23128883 42.39850222 1.2109375 38.328125 C3.20710927 33.24353652 3.73232927 28.49793715 2.10546875 23.25 C0.06775405 18.8720278 -2.80281001 15.30814067 -7.15625 13.16015625 C-15.80123905 10.42813449 -24.48189822 11.71538968 -30.16796875 19.125 Z " fill="#000000" transform="translate(102.7890625,37.671875)"/>
</svg>
